<?xml version="1.0" standalone="no"?>
<!DOCTYPE svg PUBLIC "-//W3C//DTD SVG 20010904//EN"
 "http://www.w3.org/TR/2001/REC-SVG-20010904/DTD/svg10.dtd">
<svg version="1.0" xmlns="http://www.w3.org/2000/svg" width="900.000000pt" height="900.000000pt" viewBox="0 0 900.000000 900.000000" preserveAspectRatio="xMidYMid meet"> <g transform="translate(0.000000,900.000000) scale(0.100000,-0.100000)" fill="#000000" stroke="none">
<path d="M1590 6015 l0 -335 2910 0 2910 0 0 335 0 335 -2910 0 -2910 0 0 -335z"/>
<path d="M1595 4827 c-3 -6 -4 -158 -3 -337 l3 -325 2905 0 2905 0 0 335 0 335 -2903 3 c-2327 2 -2904 0 -2907 -11z"/>
<path d="M1590 2985 l0 -335 2910 0 2910 0 0 335 0 335 -2910 0 -2910 0 0 -335z"/>
</g>
</svg>
